<svg width="102" height="64" viewBox="0 0 102 64" fill="none" xmlns="http://www.w3.org/2000/svg">
<g clip-path="url(#clip0_1206_4299)">
<path d="M50.4381 29.2384C48.7579 28.3365 46.813 27.8867 44.6058 27.8867H30.4097V63.2932H37.0821V49.5579H44.6058C46.813 49.5579 48.7579 49.1125 50.4381 48.2195C52.1184 47.3264 53.4215 46.0629 54.3455 44.4334C55.2716 42.8017 55.7346 40.9053 55.7346 38.7466C55.7346 36.5878 55.2716 34.6893 54.3455 33.0487C53.4193 31.4082 52.1184 30.1381 50.4381 29.2384ZM48.308 41.0376C47.9663 41.7035 47.4922 42.2173 46.8836 42.5834C46.275 42.9494 45.5716 43.1302 44.7778 43.1302H37.0821V34.3144H44.7778C45.5892 34.3144 46.2992 34.4974 46.9078 34.8613C47.5164 35.2273 47.9883 35.7455 48.3213 36.4203C48.6542 37.095 48.8218 37.869 48.8218 38.7466C48.8218 39.6242 48.652 40.3695 48.3102 41.0354L48.308 41.0376Z" fill="white"/>
<path d="M72.7786 37.1843C71.4468 37.1843 70.2252 37.6033 69.1139 38.439C68.2561 39.0851 67.5218 39.9318 66.911 40.9792V37.5504H59.7512V62.8268H66.911V48.5315C66.911 46.9902 67.2793 45.784 68.0202 44.9152C68.7588 44.0464 69.8018 43.612 71.1491 43.612C71.7665 43.612 72.309 43.6936 72.7808 43.8546C73.2527 44.0178 73.6496 44.2603 73.9738 44.5845L77.8701 39.1534C77.2372 38.5029 76.4941 38.0134 75.643 37.6805C74.7918 37.3475 73.8371 37.1821 72.7808 37.1821L72.7786 37.1843Z" fill="white"/>
<path d="M100.355 42.1876C99.5041 40.5559 98.2604 39.3144 96.6287 38.4611C94.9969 37.6099 93.0278 37.1821 90.7236 37.1821C88.4193 37.1821 86.4502 37.6077 84.8184 38.4611C83.1867 39.3122 81.9453 40.5559 81.0919 42.1876C80.2408 43.8193 79.813 45.7796 79.813 48.0684V52.1831C79.813 54.505 80.2386 56.4895 81.0919 58.1367C81.9431 59.7839 83.1867 61.0385 84.8184 61.8985C86.4502 62.7585 88.4171 63.1885 90.7236 63.1885C93.03 63.1885 94.9969 62.7585 96.6287 61.8985C98.2604 61.0385 99.5019 59.7927 100.355 58.1609C101.206 56.5292 101.634 54.5623 101.634 52.2558V48.0684C101.634 45.7796 101.209 43.8193 100.355 42.1876ZM94.9617 52.258C94.9617 53.6869 94.589 54.7938 93.8415 55.581C93.094 56.3682 92.0488 56.7629 90.7015 56.7629C89.3542 56.7629 88.3156 56.3704 87.5836 55.581C86.8537 54.7938 86.4877 53.6869 86.4877 52.258V48.0707C86.4877 46.6572 86.8581 45.5635 87.5968 44.7829C88.3355 44.0045 89.3697 43.6143 90.7015 43.6143C92.0334 43.6143 93.0962 44.0045 93.8415 44.7829C94.589 45.5635 94.9617 46.6572 94.9617 48.0707V52.258Z" fill="white"/>
<path d="M31.5148 7.42578H30.4409V23.0596H33.3869V16.8546H39.5257V14.0167H33.3869V10.2637H40.7098V7.42578H33.3869H31.5148Z" fill="white"/>
<path d="M51.811 8.02188C51.0701 7.62498 50.2101 7.42432 49.2355 7.42432H42.9666V23.0581H45.9125V16.9942H49.2355C50.2101 16.9942 51.0679 16.798 51.811 16.4033C52.5519 16.0086 53.1274 15.4507 53.5375 14.7318C53.9455 14.0108 54.1506 13.1751 54.1506 12.2203C54.1506 11.2655 53.9455 10.4276 53.5375 9.70433C53.1296 8.98108 52.5541 8.41879 51.811 8.02188ZM50.8694 13.2324C50.7195 13.5257 50.51 13.755 50.241 13.916C49.972 14.0769 49.6611 14.1585 49.3105 14.1585H45.9125V10.2666H49.3105C49.6699 10.2666 49.983 10.3482 50.252 10.5092C50.521 10.6701 50.7283 10.8995 50.8761 11.1972C51.0238 11.4948 51.0966 11.8366 51.0966 12.2247C51.0966 12.6128 51.0216 12.9413 50.8716 13.2346L50.8694 13.2324Z" fill="white"/>
<path d="M67.2807 7.42627H55.8167V10.2642H60.0746V23.0601H63.0227V10.2642H67.2807V7.42627Z" fill="white"/>
<path d="M12.4589 0L1.48877 17.5544C1.48877 17.5544 1.48877 17.5544 1.48877 17.5522C-0.429623 20.723 -0.101071 24.8222 2.51411 27.4374L10.1259 35.0492L21.1644 17.3824C21.1644 17.3824 21.4819 16.7738 21.5525 16.6194C22.9307 13.6007 22.4477 9.98886 20.0663 7.60741L12.4589 0Z" fill="white"/>
<path d="M14.751 27.636L3.78088 45.1904C3.78088 45.1904 3.78088 45.1904 3.78088 45.1882C1.86249 48.359 2.19104 52.4582 4.80623 55.0734L12.4181 62.6852L23.4565 45.0184C23.4565 45.0184 23.774 44.4098 23.8446 44.2554C25.2228 41.2367 24.7399 37.6249 22.3584 35.2434L14.7488 27.6338L14.751 27.636Z" fill="white"/>
</g>
<defs>
<clipPath id="clip0_1206_4299">
<rect width="101.926" height="64" fill="white"/>
</clipPath>
</defs>
</svg>
