<svg width="20" height="20" viewBox="0 0 20 20" fill="none" xmlns="http://www.w3.org/2000/svg">
<g clip-path="url(#clip0_1612_15178)">
<path d="M2.04883 7.49984C3.11334 4.11891 6.27974 1.6665 10.0203 1.6665C14.3522 1.6665 17.9139 4.9554 18.333 9.1665L16.6663 8.82729" stroke="#DA3E33" stroke-width="1.5" stroke-linecap="round" stroke-linejoin="round"/>
<path d="M17.9507 12.4997C16.8862 15.8806 13.7198 18.333 9.97917 18.333C5.64735 18.333 2.0856 15.0441 1.66646 10.833L3.33317 11.1722" stroke="#DA3E33" stroke-width="1.5" stroke-linecap="round" stroke-linejoin="round"/>
<g clip-path="url(#clip1_1612_15178)">
<path d="M10 11.8753V11.042" stroke="#DA3E33" stroke-width="1.5" stroke-linecap="round"/>
<path d="M6.77809 12.852C6.87179 13.5479 7.44822 14.0931 8.14969 14.1254C8.73995 14.1525 9.33955 14.1667 9.99984 14.1667C10.6601 14.1667 11.2597 14.1525 11.85 14.1254C12.5514 14.0931 13.1279 13.5479 13.2216 12.852C13.2827 12.3978 13.3332 11.9323 13.3332 11.4583C13.3332 10.9843 13.2827 10.5189 13.2216 10.0647C13.1279 9.36876 12.5514 8.82354 11.85 8.79129C11.2597 8.76415 10.6601 8.75 9.99984 8.75C9.33955 8.75 8.73995 8.76415 8.14969 8.79129C7.44822 8.82354 6.87179 9.36876 6.77809 10.0647C6.71694 10.5189 6.6665 10.9843 6.6665 11.4583C6.6665 11.9323 6.71694 12.3978 6.77809 12.852Z" stroke="#DA3E33" stroke-width="1.5"/>
<path d="M8.125 8.75016V7.7085C8.125 6.67296 8.96447 5.8335 10 5.8335C11.0355 5.8335 11.875 6.67296 11.875 7.7085V8.75016" stroke="#DA3E33" stroke-width="1.5" stroke-linecap="round" stroke-linejoin="round"/>
</g>
</g>
<defs>
<clipPath id="clip0_1612_15178">
<rect width="20" height="20" fill="white"/>
</clipPath>
<clipPath id="clip1_1612_15178">
<rect width="10" height="10" fill="white" transform="translate(5 5)"/>
</clipPath>
</defs>
</svg>
