<svg width="16" height="16" viewBox="0 0 16 16" fill="none" xmlns="http://www.w3.org/2000/svg">
<path d="M13 3.66602L12.5868 10.3494C12.4813 12.057 12.4285 12.9108 12.0005 13.5246C11.7889 13.8281 11.5164 14.0842 11.2005 14.2767C10.5614 14.666 9.70599 14.666 7.99516 14.666C6.28208 14.666 5.42554 14.666 4.78604 14.276C4.46987 14.0831 4.19733 13.8266 3.98579 13.5226C3.55792 12.9077 3.5063 12.0528 3.40307 10.3428L3 3.66602" stroke="#667085" stroke-linecap="round"/>
<path d="M2 3.66634H14M10.7038 3.66634L10.2487 2.72749C9.94638 2.10385 9.79522 1.79202 9.53448 1.59755C9.47664 1.55441 9.4154 1.51604 9.35135 1.48281C9.06261 1.33301 8.71608 1.33301 8.02302 1.33301C7.31255 1.33301 6.95732 1.33301 6.66379 1.48909C6.59873 1.52368 6.53666 1.5636 6.4782 1.60845C6.21443 1.81081 6.06709 2.13404 5.7724 2.78051L5.36862 3.66634" stroke="#667085" stroke-linecap="round"/>
<path d="M6.3335 11L6.3335 7" stroke="#667085" stroke-linecap="round"/>
<path d="M9.6665 11L9.6665 7" stroke="#667085" stroke-linecap="round"/>
</svg>
