<svg width="25" height="24" viewBox="0 0 25 24" fill="none" xmlns="http://www.w3.org/2000/svg">
<path d="M15.3 17C14.5005 17.6224 13.4502 18 12.3 18C11.1497 18 10.0995 17.6224 9.29999 17" stroke="#667085" stroke-width="1.5" stroke-linecap="round"/>
<path d="M2.65138 13.2135C2.29836 10.9162 2.12185 9.76763 2.55615 8.74938C2.99046 7.73112 3.95401 7.03443 5.88113 5.64106L7.32098 4.6C9.71828 2.86667 10.9169 2 12.3 2C13.683 2 14.8817 2.86667 17.279 4.6L18.7188 5.64106C20.646 7.03443 21.6095 7.73112 22.0438 8.74938C22.4781 9.76763 22.3016 10.9162 21.9486 13.2135L21.6476 15.1724C21.1471 18.4289 20.8969 20.0572 19.729 21.0286C18.5611 22 16.8537 22 13.4388 22H11.1612C7.74632 22 6.0389 22 4.87099 21.0286C3.70308 20.0572 3.45286 18.4289 2.95241 15.1724L2.65138 13.2135Z" stroke="#667085" stroke-width="1.5" stroke-linejoin="round"/>
</svg>
