<svg width="25" height="24" viewBox="0 0 25 24" fill="none" xmlns="http://www.w3.org/2000/svg">
<path d="M12.6919 12H12.7009" stroke="#667085" stroke-width="2" stroke-linecap="round" stroke-linejoin="round"/>
<path d="M12.6841 16H12.6931" stroke="#667085" stroke-width="2" stroke-linecap="round" stroke-linejoin="round"/>
<path d="M12.6998 8H12.7087" stroke="#667085" stroke-width="2" stroke-linecap="round" stroke-linejoin="round"/>
<path d="M3.18433 12C3.18433 7.52166 3.18433 5.28249 4.57557 3.89124C5.96681 2.5 8.20598 2.5 12.6843 2.5C17.1627 2.5 19.4018 2.5 20.7931 3.89124C22.1843 5.28249 22.1843 7.52166 22.1843 12C22.1843 16.4783 22.1843 18.7175 20.7931 20.1088C19.4018 21.5 17.1627 21.5 12.6843 21.5C8.20598 21.5 5.96681 21.5 4.57557 20.1088C3.18433 18.7175 3.18433 16.4783 3.18433 12Z" stroke="#667085" stroke-width="1.5"/>
</svg>
