<svg width="25" height="24" viewBox="0 0 25 24" fill="none" xmlns="http://www.w3.org/2000/svg">
<path d="M11.3706 22C7.37748 22 5.38094 22 4.14045 20.8284C2.89996 19.6569 2.89996 17.7712 2.89996 14L2.89996 10C2.89996 6.22876 2.89996 4.34315 4.14045 3.17157C5.38094 2 7.37748 2 11.3706 2L12.4294 2C16.4225 2 18.419 2 19.6595 3.17157C20.9 4.34315 20.9 6.22876 20.9 10" stroke="#667085" stroke-width="1.5" stroke-linecap="round"/>
<path d="M7.89996 7H15.9" stroke="#667085" stroke-width="1.5" stroke-linecap="round"/>
<path d="M7.89996 12H13.9" stroke="#667085" stroke-width="1.5" stroke-linecap="round"/>
<path d="M14.9 22C16.7384 19.2518 21.0187 19.1018 22.9 22M20.9 14.9287C20.9 15.9939 20.0045 16.8574 18.9 16.8574C17.7954 16.8574 16.9 15.9939 16.9 14.9287C16.9 13.8635 17.7954 13 18.9 13C20.0045 13 20.9 13.8635 20.9 14.9287Z" stroke="#667085" stroke-width="1.5" stroke-linecap="round"/>
</svg>
