<svg width="25" height="24" viewBox="0 0 25 24" fill="none" xmlns="http://www.w3.org/2000/svg">
<path d="M2.63002 14.394C2.41737 15.7471 3.3681 16.6862 4.53215 17.1542C8.99491 18.9486 15.2053 18.9486 19.668 17.1542C20.8321 16.6862 21.7828 15.7471 21.5702 14.394C21.4395 13.5625 20.7933 12.8701 20.3145 12.194C19.6874 11.2975 19.6251 10.3197 19.625 9.27941C19.625 5.2591 16.256 2 12.1001 2C7.94423 2 4.57522 5.2591 4.57522 9.27941C4.57513 10.3197 4.51282 11.2975 3.88571 12.194C3.40694 12.8701 2.76071 13.5625 2.63002 14.394Z" stroke="#667085" stroke-width="1.5" stroke-linecap="round" stroke-linejoin="round"/>
<path d="M9.1001 21C9.89623 21.6219 10.9476 22 12.1001 22C13.2526 22 14.304 21.6219 15.1001 21" stroke="#667085" stroke-width="1.5" stroke-linecap="round" stroke-linejoin="round"/>
</svg>
