<svg width="20" height="20" viewBox="0 0 20 20" fill="none" xmlns="http://www.w3.org/2000/svg">
<path d="M10 15V18.3333" stroke="#0C4DA2" stroke-width="1.5" stroke-linecap="round" stroke-linejoin="round"/>
<path d="M8.33366 15L4.16699 18.3333" stroke="#0C4DA2" stroke-width="1.5" stroke-linecap="round" stroke-linejoin="round"/>
<path d="M11.667 15L15.8337 18.3333" stroke="#0C4DA2" stroke-width="1.5" stroke-linecap="round" stroke-linejoin="round"/>
<path d="M2.0835 9.99984C2.0835 12.3569 2.0835 13.5354 2.81573 14.2676C3.54796 14.9998 4.72647 14.9998 7.0835 14.9998H12.9168C15.2739 14.9998 16.4524 14.9998 17.1846 14.2676C17.9168 13.5354 17.9168 12.3569 17.9168 9.99984V6.6665C17.9168 4.30948 17.9168 3.13097 17.1846 2.39874C16.4524 1.6665 15.2739 1.6665 12.9168 1.6665H7.0835C4.72647 1.6665 3.54796 1.6665 2.81573 2.39874C2.0835 3.13097 2.0835 4.30948 2.0835 6.6665V9.99984Z" stroke="#0C4DA2" stroke-width="1.5"/>
<path d="M6.66699 10.833V8.33301M10.0003 10.833V5.83301M13.3337 10.833V9.16634" stroke="#0C4DA2" stroke-width="1.5" stroke-linecap="round"/>
</svg>
