<svg width="44" height="44" viewBox="0 0 44 44" fill="none" xmlns="http://www.w3.org/2000/svg">
<rect width="44" height="44" rx="22" fill="#E6F2FB"/>
<g clip-path="url(#clip0_2361_6014)">
<path d="M20.7253 30.3334C17.3978 30.3334 15.734 30.3334 14.7002 29.3571C13.6665 28.3808 13.6665 26.8094 13.6665 23.6667L13.6665 20.3334C13.6665 17.1907 13.6665 15.6194 14.7002 14.6431C15.734 13.6667 17.3978 13.6667 20.7253 13.6667L21.6077 13.6667C24.9352 13.6667 26.599 13.6667 27.6328 14.6431C28.6665 15.6194 28.6665 17.1907 28.6665 20.3334" stroke="#0673C6" stroke-width="1.5" stroke-linecap="round"/>
<path d="M17.833 17.8335H24.4997" stroke="#0673C6" stroke-width="1.5" stroke-linecap="round"/>
<path d="M17.833 22H22.833" stroke="#0673C6" stroke-width="1.5" stroke-linecap="round"/>
<path d="M23.6665 30.3335C25.1986 28.0433 28.7655 27.9183 30.3332 30.3335M28.6665 24.4407C28.6665 25.3284 27.9203 26.048 26.9998 26.048C26.0794 26.048 25.3332 25.3284 25.3332 24.4407C25.3332 23.5531 26.0794 22.8335 26.9998 22.8335C27.9203 22.8335 28.6665 23.5531 28.6665 24.4407Z" stroke="#0673C6" stroke-width="1.5" stroke-linecap="round"/>
</g>
<defs>
<clipPath id="clip0_2361_6014">
<rect width="20" height="20" fill="white" transform="translate(12 12)"/>
</clipPath>
</defs>
</svg>
