<svg width="20" height="20" viewBox="0 0 20 20" fill="none" xmlns="http://www.w3.org/2000/svg">
<path d="M17.7647 5.95132L17.3534 5.23749C17.0423 4.69763 16.8868 4.4277 16.6221 4.32006C16.3575 4.21243 16.0582 4.29736 15.4596 4.46723L14.4427 4.75365C14.0605 4.84178 13.6596 4.79178 13.3106 4.61249L13.0299 4.45051C12.7307 4.25886 12.5005 3.97627 12.3731 3.64412L12.0948 2.81296C11.9118 2.26294 11.8203 1.98794 11.6025 1.83064C11.3847 1.67334 11.0954 1.67334 10.5168 1.67334L9.58778 1.67334C9.00914 1.67334 8.71983 1.67334 8.50202 1.83064C8.2842 1.98794 8.19271 2.26294 8.00973 2.81296L7.73144 3.64412C7.60404 3.97627 7.37387 4.25886 7.07464 4.45051L6.7939 4.61249C6.44494 4.79178 6.04399 4.84178 5.66182 4.75365L4.64495 4.46723C4.04634 4.29736 3.74703 4.21243 3.48239 4.32006C3.21774 4.4277 3.0622 4.69763 2.75112 5.23749L2.3398 5.95132C2.04821 6.45737 1.90242 6.71039 1.93071 6.97974C1.95901 7.24909 2.15419 7.46614 2.54455 7.90026L3.40375 8.86085C3.61375 9.1267 3.76283 9.59001 3.76283 10.0065C3.76283 10.4233 3.61379 10.8865 3.40377 11.1524L2.54455 12.113C2.15419 12.5471 1.95901 12.7642 1.93071 13.0335C1.90242 13.3029 2.04821 13.5559 2.3398 14.062L2.75111 14.7758C3.06218 15.3156 3.21774 15.5856 3.48239 15.6932C3.74704 15.8008 4.04635 15.7159 4.64497 15.546L5.66178 15.2596C6.04402 15.1714 6.44505 15.2215 6.79405 15.4008L7.07474 15.5628C7.37392 15.7545 7.60403 16.037 7.73141 16.3691L8.00973 17.2004C8.19271 17.7504 8.2842 18.0254 8.50202 18.1827C8.71983 18.34 9.00914 18.34 9.58778 18.34H10.5168C11.0954 18.34 11.3847 18.34 11.6025 18.1827C11.8203 18.0254 11.9118 17.7504 12.0948 17.2004L12.3731 16.3691C12.5005 16.037 12.7306 15.7545 13.0298 15.5628L13.3105 15.4008C13.6595 15.2215 14.0605 15.1714 14.4428 15.2596L15.4596 15.546C16.0582 15.7159 16.3575 15.8008 16.6221 15.6932C16.8868 15.5856 17.0423 15.3156 17.3534 14.7758L17.3534 14.7758L17.7647 14.062C18.0563 13.5559 18.2021 13.3029 18.1738 13.0335C18.1455 12.7642 17.9503 12.5471 17.56 12.113L16.7008 11.1524C16.4907 10.8865 16.3417 10.4233 16.3417 10.0065C16.3417 9.59001 16.4908 9.1267 16.7008 8.86085L17.56 7.90026C17.9503 7.46614 18.1455 7.24909 18.1738 6.97974C18.2021 6.71039 18.0563 6.45737 17.7647 5.95132Z" stroke="#0C4DA2" stroke-width="1.5" stroke-linecap="round"/>
<path d="M12.9329 10.0002C12.9329 11.611 11.6271 12.9168 10.0163 12.9168C8.40545 12.9168 7.09961 11.611 7.09961 10.0002C7.09961 8.38933 8.40545 7.0835 10.0163 7.0835C11.6271 7.0835 12.9329 8.38933 12.9329 10.0002Z" stroke="#0C4DA2" stroke-width="1.5"/>
</svg>
