<svg width="18" height="20" viewBox="0 0 18 20" fill="none" xmlns="http://www.w3.org/2000/svg">
<path d="M9 18C6.125 18 3.5 16.5 2.0625 14C0.625 11.5312 0.625 8.5 2.0625 6C3.5 3.53125 6.125 2 9 2C11.8438 2 14.4688 3.53125 15.9062 6C17.3438 8.5 17.3438 11.5312 15.9062 14C14.4688 16.5 11.8438 18 9 18ZM9 6C8.5625 6 8.25 6.34375 8.25 6.75V10.25C8.25 10.6875 8.5625 11 9 11C9.40625 11 9.75 10.6875 9.75 10.25V6.75C9.75 6.34375 9.40625 6 9 6ZM8 13C8 13.5625 8.4375 14 9 14C9.53125 14 10 13.5625 10 13C10 12.4688 9.53125 12 9 12C8.4375 12 8 12.4688 8 13Z" fill="#DA3E33"/>
</svg>
