<svg width="44" height="44" viewBox="0 0 44 44" fill="none" xmlns="http://www.w3.org/2000/svg">
<path d="M0 22C0 9.84974 9.84974 0 22 0C34.1503 0 44 9.84974 44 22C44 34.1503 34.1503 44 22 44C9.84974 44 0 34.1503 0 22Z" fill="#E9F6ED"/>
<g clip-path="url(#clip0_2362_81658)">
<path d="M20.7253 30.3337C17.3978 30.3337 15.734 30.3337 14.7002 29.3573C13.6665 28.381 13.6665 26.8097 13.6665 23.667L13.6665 20.3337C13.6665 17.191 13.6665 15.6196 14.7002 14.6433C15.734 13.667 17.3978 13.667 20.7253 13.667L21.6077 13.667C24.9352 13.667 26.599 13.667 27.6328 14.6433C28.6665 15.6196 28.6665 17.191 28.6665 20.3337" stroke="#219342" stroke-width="1.5" stroke-linecap="round"/>
<path d="M17.833 17.834H24.4997" stroke="#219342" stroke-width="1.5" stroke-linecap="round"/>
<path d="M17.833 22H22.833" stroke="#219342" stroke-width="1.5" stroke-linecap="round"/>
<path d="M23.6665 30.334C25.1986 28.0438 28.7655 27.9188 30.3332 30.334M28.6665 24.4412C28.6665 25.3289 27.9203 26.0485 26.9998 26.0485C26.0794 26.0485 25.3332 25.3289 25.3332 24.4412C25.3332 23.5536 26.0794 22.834 26.9998 22.834C27.9203 22.834 28.6665 23.5536 28.6665 24.4412Z" stroke="#219342" stroke-width="1.5" stroke-linecap="round"/>
</g>
<defs>
<clipPath id="clip0_2362_81658">
<rect width="20" height="20" fill="white" transform="translate(12 12)"/>
</clipPath>
</defs>
</svg>
