<svg width="49" height="32" viewBox="0 0 49 32" fill="none" xmlns="http://www.w3.org/2000/svg">
<g clip-path="url(#clip0_1442_38232)">
<rect x="0.5" width="48" height="32" rx="3" fill="white"/>
<path fill-rule="evenodd" clip-rule="evenodd" d="M0.5 0H21.0714V14.9333H0.5V0Z" fill="#1A47B8"/>
<path fill-rule="evenodd" clip-rule="evenodd" d="M21.0714 0V2.13333H48.5V0H21.0714ZM21.0714 4.26667V6.4H48.5V4.26667H21.0714ZM21.0714 8.53333V10.6667H48.5V8.53333H21.0714ZM21.0714 12.8V14.9333H48.5V12.8H21.0714ZM0.5 17.0667V19.2H48.5V17.0667H0.5ZM0.5 21.3333V23.4667H48.5V21.3333H0.5ZM0.5 25.6V27.7333H48.5V25.6H0.5ZM0.5 29.8667V32H48.5V29.8667H0.5Z" fill="#F93939"/>
<path fill-rule="evenodd" clip-rule="evenodd" d="M2.78571 2.1333V4.26663H5.07142V2.1333H2.78571ZM7.35713 2.1333V4.26663H9.64285V2.1333H7.35713ZM11.9286 2.1333V4.26663H14.2143V2.1333H11.9286ZM16.5 2.1333V4.26663H18.7857V2.1333H16.5ZM14.2143 4.26663V6.39997H16.5V4.26663H14.2143ZM9.64285 4.26663V6.39997H11.9286V4.26663H9.64285ZM5.07142 4.26663V6.39997H7.35713V4.26663H5.07142ZM2.78571 6.39997V8.5333H5.07142V6.39997H2.78571ZM7.35713 6.39997V8.5333H9.64285V6.39997H7.35713ZM11.9286 6.39997V8.5333H14.2143V6.39997H11.9286ZM16.5 6.39997V8.5333H18.7857V6.39997H16.5ZM2.78571 10.6666V12.8H5.07142V10.6666H2.78571ZM7.35713 10.6666V12.8H9.64285V10.6666H7.35713ZM11.9286 10.6666V12.8H14.2143V10.6666H11.9286ZM16.5 10.6666V12.8H18.7857V10.6666H16.5ZM14.2143 8.5333V10.6666H16.5V8.5333H14.2143ZM9.64285 8.5333V10.6666H11.9286V8.5333H9.64285ZM5.07142 8.5333V10.6666H7.35713V8.5333H5.07142Z" fill="white"/>
</g>
<defs>
<clipPath id="clip0_1442_38232">
<rect x="0.5" width="48" height="32" rx="3" fill="white"/>
</clipPath>
</defs>
</svg>
